<?xml version="1.0" standalone="no"?>
<!DOCTYPE svg PUBLIC "-//W3C//DTD SVG 20010904//EN"
 "http://www.w3.org/TR/2001/REC-SVG-20010904/DTD/svg10.dtd">
<svg version="1.0" xmlns="http://www.w3.org/2000/svg"
 width="40.000000pt" height="60.000000pt" viewBox="0 0 40.000000 60.000000"
 preserveAspectRatio="xMidYMid meet">
<metadata>
Created by potrace 1.16, written by Peter Selinger 2001-2019
</metadata>
<g transform="translate(0.000000,60.000000) scale(0.003968,-0.004348)"
fill="#000000" stroke="none">
<path d="M6305 9880 c-75 -10 -144 -39 -187 -79 l-28 -24 23 -31 c31 -41 107
-194 107 -215 0 -9 5 -22 11 -28 20 -20 16 -164 -6 -214 -30 -70 -89 -133
-152 -165 -49 -25 -68 -29 -137 -29 -89 1 -127 18 -194 85 -65 65 -98 190 -73
274 5 17 15 51 22 76 13 49 37 107 75 183 13 27 24 52 24 57 0 11 -103 60
-128 60 -11 0 -23 4 -26 9 -10 15 -167 24 -231 13 -128 -22 -171 -37 -265 -88
-79 -43 -180 -162 -180 -212 0 -10 -6 -24 -12 -30 -17 -17 -18 -321 -1 -377 7
-22 20 -67 29 -100 9 -33 21 -64 26 -69 4 -6 8 -18 8 -27 0 -29 156 -330 223
-429 94 -141 222 -317 279 -385 65 -78 98 -121 98 -127 0 -21 36 -2 112 58
111 89 204 154 453 319 250 166 315 214 418 314 165 160 294 355 348 525 24
78 26 247 4 327 -24 84 -76 178 -118 215 -110 94 -327 141 -522 114z"/>
<path d="M5942 9628 c-6 -8 -24 -41 -38 -74 -37 -81 -39 -185 -6 -232 19 -27
30 -32 62 -32 46 0 66 17 80 72 14 51 5 107 -30 183 -38 83 -53 101 -68 83z"/>
<path d="M4359 7006 c-3 -3 -59 -12 -125 -20 -138 -17 -212 -30 -292 -52 -31
-9 -75 -20 -97 -25 -56 -14 -188 -60 -199 -70 -6 -5 -17 -9 -25 -9 -14 0 -34
-9 -211 -93 -110 -53 -288 -161 -420 -255 -242 -174 -476 -416 -636 -657 -32
-49 -61 -92 -64 -95 -17 -17 -120 -215 -170 -325 -44 -98 -46 -104 -65 -160
-10 -27 -21 -59 -25 -70 -5 -11 -18 -51 -30 -90 -128 -410 -153 -916 -66
-1330 37 -173 45 -205 67 -260 4 -11 11 -36 15 -55 3 -19 10 -41 15 -50 4 -8
20 -49 35 -90 43 -117 150 -346 174 -370 3 -3 14 -21 24 -40 90 -165 243 -359
425 -540 162 -160 374 -325 521 -404 19 -10 46 -26 60 -36 36 -25 290 -147
323 -155 15 -4 30 -11 33 -16 3 -5 12 -9 21 -9 8 0 29 -6 46 -14 48 -22 125
-46 147 -46 10 0 21 -4 24 -9 3 -5 20 -11 38 -14 18 -4 67 -13 108 -22 413
-89 928 -80 1310 24 123 33 260 80 274 92 6 5 16 9 22 9 12 0 127 49 166 70 9
5 56 30 105 55 101 53 116 62 160 92 17 13 34 23 37 23 13 0 188 129 286 211
390 324 685 760 835 1239 10 30 21 64 26 75 4 11 13 43 19 70 6 28 15 66 20
85 4 19 13 62 19 95 7 33 16 80 21 105 21 95 31 409 20 604 -6 105 -15 207
-20 226 -5 19 -16 80 -26 135 -10 55 -21 104 -26 110 -4 5 -8 19 -8 31 0 23
-55 207 -71 236 -5 10 -9 23 -9 29 0 6 -7 27 -16 47 -9 21 -20 46 -24 57 -14
35 -129 269 -153 310 -79 138 -183 282 -322 445 -39 45 -170 176 -215 215
-138 117 -321 255 -340 255 -5 0 -10 3 -10 8 0 4 -17 16 -37 27 -21 11 -51 29
-68 41 -28 20 -246 128 -340 168 -22 10 -49 21 -60 26 -46 20 -206 70 -224 70
-11 0 -22 4 -25 9 -3 5 -20 11 -38 14 -18 3 -69 13 -113 22 -166 35 -294 47
-555 52 -146 2 -268 2 -271 -1z"/>
</g>
</svg>
